<?xml version="1.0" standalone="no"?>
<!DOCTYPE svg PUBLIC "-//W3C//DTD SVG 20010904//EN"
 "http://www.w3.org/TR/2001/REC-SVG-20010904/DTD/svg10.dtd">
<svg version="1.0" xmlns="http://www.w3.org/2000/svg"
 width="281.000000pt" height="281.000000pt" viewBox="0 0 281.000000 281.000000"
 preserveAspectRatio="xMidYMid meet">
<metadata>
Created by potrace 1.14, written by Peter Selinger 2001-2017
</metadata>
<g transform="translate(0.000000,281.000000) scale(0.100000,-0.100000)"
fill="#000000" stroke="none">
<path d="M1680 2388 c-19 -5 -39 -14 -44 -19 -6 -5 -23 -9 -38 -9 -15 0 -28
-4 -28 -10 0 -5 -6 -10 -13 -10 -7 0 -23 -9 -35 -20 -12 -11 -29 -20 -38 -20
-28 0 -154 -64 -154 -79 0 -8 -6 -11 -16 -7 -11 4 -15 2 -11 -8 3 -8 -1 -20
-8 -26 -8 -7 -13 -16 -10 -20 3 -5 -6 -17 -20 -28 -14 -11 -25 -22 -25 -25 0
-3 -16 -29 -35 -58 -32 -48 -96 -224 -102 -276 -1 -12 -7 -32 -13 -44 -8 -15
-9 -19 -1 -15 6 4 11 2 11 -3 0 -6 -4 -11 -10 -11 -5 0 -9 -3 -9 -7 1 -5 0
-10 -1 -13 -1 -3 -3 -18 -4 -35 -1 -22 -6 -30 -19 -29 -9 1 -17 -2 -17 -7 0
-5 7 -9 15 -9 8 0 15 -4 15 -10 0 -5 -5 -10 -11 -10 -6 0 -9 -10 -6 -22 5 -25
-4 -60 -16 -59 -12 1 -57 -42 -57 -54 0 -6 11 -22 25 -35 25 -23 25 -23 25 -2
0 16 4 20 18 15 15 -6 15 -5 3 11 -14 17 -15 17 -28 0 -7 -10 -13 -13 -13 -7
0 6 6 16 13 22 11 8 19 5 38 -16 13 -14 18 -23 12 -19 -16 9 -17 -10 -3 -19 8
-5 7 -11 -1 -21 -9 -11 -3 -21 25 -47 20 -20 39 -48 42 -67 7 -31 6 -32 -14
-21 -12 6 -21 15 -20 19 1 4 -2 15 -6 25 -10 21 -30 23 -22 2 4 -10 -1 -15
-15 -15 -13 0 -18 4 -13 12 5 7 3 8 -5 4 -7 -5 -10 -10 -7 -13 7 -8 -18 -32
-27 -26 -4 3 -2 12 5 21 8 10 8 13 1 9 -6 -4 -13 -2 -15 4 -6 18 -36 -1 -31
-21 4 -13 -1 -19 -19 -22 -12 -2 -21 -7 -20 -12 2 -5 -1 -12 -6 -15 -6 -4 -3
-15 8 -28 l17 -22 23 24 c13 14 20 31 17 39 -7 18 1 20 21 7 10 -6 10 -10 -2
-20 -8 -7 -12 -19 -9 -27 3 -10 0 -12 -10 -8 -10 3 -18 -2 -22 -15 -3 -12 -11
-21 -17 -21 -5 0 -8 -6 -5 -13 7 -19 -45 -9 -56 10 -5 8 -16 11 -28 8 -11 -4
-19 -2 -19 5 0 6 4 9 9 6 5 -3 15 2 22 11 10 12 10 14 2 9 -8 -4 -13 -2 -13 6
0 7 -7 2 -16 -10 -8 -12 -20 -19 -26 -16 -6 4 -8 2 -4 -4 3 -6 1 -14 -4 -17
-8 -5 -6 -13 6 -26 9 -10 14 -24 11 -32 -3 -7 2 -13 13 -14 13 -1 17 6 16 28
-1 18 -5 27 -13 25 -7 -3 -15 -1 -18 4 -10 16 23 12 50 -6 13 -9 29 -13 34
-10 5 4 12 2 15 -3 4 -6 -7 -8 -24 -6 -26 3 -30 1 -30 -18 0 -13 -5 -28 -12
-35 -9 -9 -9 -12 1 -12 8 0 10 -7 6 -19 -5 -16 -2 -18 15 -14 11 3 20 0 20 -6
0 -10 -14 -15 -32 -12 -16 2 -7 -12 31 -51 l40 -40 37 36 c20 20 52 41 70 48
18 6 37 21 43 32 8 18 10 18 10 4 1 -24 13 -22 30 4 10 16 10 23 2 26 -6 2 -9
8 -5 13 7 12 34 -15 34 -33 0 -8 -16 -20 -35 -28 -19 -7 -31 -18 -28 -24 3 -6
3 -8 -2 -4 -16 15 -33 -25 -24 -56 9 -31 9 -31 -9 -9 l-17 23 -43 -21 c-42
-21 -42 -22 -25 -42 18 -19 17 -20 -4 -8 -12 6 -25 16 -28 21 -11 18 -185 100
-200 94 -8 -4 -15 -2 -15 4 0 5 -11 8 -25 7 -14 -2 -25 1 -25 6 0 5 -8 9 -19
9 -10 0 -24 7 -31 15 -7 9 -15 14 -17 11 -3 -2 -19 0 -36 5 -18 6 -47 12 -66
15 -41 6 -151 -26 -151 -43 0 -9 -8 -11 -23 -8 -28 7 -65 -6 -94 -34 -12 -12
-31 -21 -43 -21 -11 0 -20 -4 -20 -10 0 -5 -7 -10 -16 -10 -10 0 -14 -6 -10
-15 3 -9 0 -15 -10 -15 -8 0 -17 -6 -20 -14 -3 -8 -19 -18 -35 -21 -40 -9 -52
-30 -12 -22 38 8 48 -1 26 -25 -15 -17 -14 -18 33 -20 27 0 57 -1 67 0 9 1 17
-3 17 -8 0 -5 17 -19 38 -30 45 -24 101 -70 86 -70 -6 0 -17 7 -24 15 -13 16
-50 21 -50 7 0 -4 5 -13 10 -20 7 -9 7 -9 -2 -2 -7 6 -19 10 -28 10 -12 -1
-11 -3 4 -11 14 -9 15 -13 6 -19 -18 -11 -2 -33 18 -25 9 3 13 3 10 -1 -4 -3
4 -18 17 -32 27 -29 24 -47 -5 -32 -10 5 -25 8 -32 7 -7 -2 -10 -2 -5 0 13 8
7 23 -9 23 -9 0 -31 7 -49 16 -19 9 -42 14 -52 11 -14 -4 -13 -5 5 -6 12 0 22
-6 22 -12 0 -5 5 -7 10 -4 6 3 10 2 10 -3 0 -6 -7 -13 -16 -16 -8 -3 -13 -2
-10 3 6 8 -25 21 -53 21 -11 0 -11 -3 -1 -15 7 -8 16 -12 21 -9 15 9 10 -6 -8
-24 -15 -15 -14 -17 8 -22 13 -4 25 -3 27 2 2 4 9 8 15 8 8 0 7 -4 -1 -12 -17
-17 -15 -25 7 -31 12 -3 27 3 38 16 18 20 18 20 -6 7 l-23 -12 18 25 c20 26
53 31 73 9 7 -6 9 -12 5 -12 -4 0 0 -8 9 -18 15 -17 14 -20 -23 -52 -22 -19
-40 -41 -40 -49 0 -11 4 -11 18 2 10 10 23 17 28 17 17 -1 -41 -40 -61 -41
-12 0 -15 -3 -7 -6 10 -4 9 -9 -4 -24 -9 -10 -23 -19 -31 -19 -8 0 -11 -5 -7
-11 4 -7 1 -10 -6 -7 -22 7 -23 28 -1 28 26 0 36 17 21 35 -12 14 -7 20 14 16
5 -1 4 5 -3 13 -12 14 -18 12 -52 -15 -36 -28 -55 -29 -27 -1 7 7 8 12 3 12
-6 0 -3 4 5 10 8 5 11 12 8 15 -4 4 -16 1 -27 -7 -12 -8 -18 -18 -14 -21 15
-16 -17 -5 -38 12 -35 28 -59 16 -59 -31 0 -29 3 -37 13 -32 9 6 9 5 0 -7 -8
-10 -12 -53 -10 -134 l2 -120 30 -6 c17 -4 22 -7 13 -8 -11 -1 -16 -8 -13 -21
2 -11 0 -20 -5 -20 -4 0 -7 -8 -6 -17 2 -13 14 -19 43 -21 34 -3 41 0 46 17 3
12 10 21 16 21 9 0 9 -5 0 -21 -9 -17 -8 -20 3 -16 7 2 12 10 10 16 -1 6 4 11
12 11 8 0 18 5 22 11 4 8 0 9 -15 4 -12 -4 -21 -2 -21 4 0 6 4 11 9 11 5 0 12
9 16 19 3 11 15 23 27 26 14 5 17 10 9 18 -7 7 -22 -2 -51 -32 -23 -24 -44
-40 -47 -38 -5 6 12 27 70 90 20 23 35 47 33 54 -4 8 3 13 19 13 19 0 23 -4
19 -17 -5 -15 -4 -16 5 -3 16 22 13 30 -9 30 -11 0 -20 7 -20 15 0 8 4 15 9
15 10 0 9 19 -2 37 -5 8 -4 13 2 13 29 0 53 21 40 36 -6 7 -1 10 14 10 12 -1
27 -7 33 -15 8 -11 13 -11 18 -2 6 9 11 9 22 0 15 -13 18 -2 8 26 -5 12 -9 13
-14 4 -5 -7 -15 -9 -26 -4 -18 8 -18 8 -1 12 9 3 17 9 17 14 0 5 5 9 10 9 6 0
20 8 31 19 20 18 65 18 53 0 -3 -5 1 -9 9 -9 10 0 13 -7 10 -20 -3 -12 0 -20
7 -20 9 0 10 -4 2 -13 -13 -15 -12 -57 1 -57 4 0 5 -5 1 -12 -5 -8 2 -9 24 -5
19 4 34 1 41 -7 14 -16 -1 -31 -42 -41 -16 -4 -31 -14 -34 -21 -3 -8 -11 -14
-19 -14 -8 0 -14 -5 -14 -11 0 -5 -5 -7 -10 -4 -6 3 -10 2 -10 -4 0 -5 -9 -13
-20 -16 -11 -4 -18 -10 -15 -15 3 -4 -2 -10 -10 -14 -8 -3 -15 0 -15 7 0 8 -3
8 -8 2 -4 -6 -23 -18 -42 -28 -19 -9 -31 -17 -26 -17 15 0 -36 -40 -53 -41
-13 0 -13 -2 -2 -6 10 -4 3 -12 -20 -24 -33 -18 -7 -18 955 -18 544 0 985 3
980 8 -5 4 -25 14 -44 21 -40 15 -93 59 -98 81 -2 8 -8 16 -13 17 -5 2 -6 9
-2 15 4 7 1 7 -9 -1 -14 -11 -16 -10 -13 14 1 14 9 30 16 35 10 6 11 9 2 9
-20 0 -15 20 5 20 15 1 15 2 2 13 -26 21 -41 55 -27 60 20 7 1 18 -33 19 -52
2 -14 15 50 17 32 1 61 -3 65 -9 3 -5 13 -10 22 -10 15 0 14 2 0 18 -10 10
-15 21 -13 23 3 3 -25 3 -62 2 -62 -3 -68 -2 -69 17 -1 12 3 18 9 14 11 -7 58
41 58 60 0 6 4 5 9 -3 6 -9 6 -24 0 -38 -5 -14 -9 -25 -9 -27 0 -1 20 -3 45
-3 36 -1 46 3 51 19 3 11 1 25 -5 31 -6 6 -11 18 -11 26 1 11 10 6 28 -15 15
-17 34 -34 42 -37 10 -4 11 -6 2 -6 -10 -1 -7 -9 7 -30 12 -16 21 -34 21 -40
0 -6 7 -11 15 -11 8 0 14 -5 13 -11 -2 -6 3 -14 11 -16 10 -4 11 2 6 28 -4 19
-12 37 -18 41 -6 4 -8 10 -4 14 4 4 -7 17 -23 29 -16 12 -27 25 -24 28 3 3
-15 28 -41 56 -87 92 -31 53 94 -67 31 -28 60 -52 65 -52 6 0 5 5 -1 11 -6 6
-9 18 -6 25 5 15 63 10 96 -7 11 -6 24 -6 35 0 13 8 5 11 -37 17 -47 6 -60 14
-107 59 -30 29 -54 57 -54 64 0 7 -6 18 -12 25 -7 7 -31 33 -54 57 -23 24 -51
50 -64 58 -20 11 -24 11 -34 -5 -5 -11 -11 -23 -13 -29 -17 -72 -28 -102 -39
-114 -14 -15 -10 8 17 95 11 38 12 74 0 74 -5 0 -11 9 -14 20 -3 11 -1 20 4
20 4 0 5 7 2 17 -4 11 -3 14 5 9 8 -5 10 1 6 21 -4 21 0 33 15 47 11 10 18 23
14 29 -4 6 0 8 9 4 10 -3 19 3 27 20 7 16 17 23 27 19 8 -3 12 -1 9 4 -7 12
15 90 26 90 5 0 30 -7 55 -16 40 -13 54 -14 86 -3 21 7 38 16 38 21 0 4 4 8
10 8 5 0 29 12 54 27 41 25 47 34 85 132 44 114 71 207 71 247 0 24 -17 64
-34 75 -5 4 -10 71 -12 149 -3 156 -6 180 -35 258 -31 87 -58 133 -106 179
-30 30 -43 50 -38 61 3 9 3 13 -1 10 -11 -12 -36 22 -36 48 0 14 -3 23 -5 20
-10 -9 -78 33 -112 69 -88 92 -313 150 -441 113z m390 -266 c0 -4 -9 -8 -19
-8 -15 0 -17 3 -9 13 10 12 28 9 28 -5z m-590 -22 c0 6 26 8 68 6 37 -2 73 1
80 6 7 7 12 7 12 1 0 -6 51 -9 128 -7 130 3 204 -6 210 -26 2 -5 7 -8 11 -6 4
3 23 -9 42 -26 19 -18 26 -29 17 -25 -15 5 -16 3 -6 -18 6 -14 14 -25 18 -25
8 0 33 -48 36 -70 2 -8 5 -27 7 -43 2 -15 7 -30 10 -34 4 -3 4 -17 2 -29 -3
-13 -7 -35 -10 -48 -3 -15 1 -31 10 -40 8 -8 17 -30 19 -48 3 -18 6 -34 7 -35
1 -2 2 -6 3 -10 1 -5 8 -25 15 -45 19 -57 21 -106 6 -156 -10 -32 -11 -50 -4
-58 15 -18 1 -106 -19 -121 -13 -11 -13 -13 -1 -13 12 0 12 -2 -1 -9 -8 -6
-19 -7 -25 -3 -5 3 -4 -2 4 -12 12 -14 12 -22 3 -36 -6 -11 -7 -20 -2 -22 5
-2 3 -20 -5 -43 -8 -22 -14 -50 -15 -62 0 -22 -20 -44 -20 -23 0 6 -5 8 -12 4
-7 -4 -8 -3 -4 5 4 6 12 9 17 6 5 -4 9 5 9 19 0 14 -5 26 -11 26 -5 0 -8 -4
-5 -9 3 -5 -1 -11 -8 -14 -8 -3 -17 -1 -19 6 -3 10 -2 -28 2 -91 1 -8 6 -10
14 -6 6 4 9 4 5 0 -3 -4 -10 -8 -15 -8 -21 0 -44 -21 -39 -35 5 -11 2 -13 -10
-9 -11 4 -15 2 -11 -8 7 -16 -21 -43 -43 -41 -8 0 -18 -4 -22 -10 -5 -6 -8 -6
-8 3 0 6 -10 12 -22 11 -18 0 -20 -2 -6 -7 15 -6 15 -9 2 -32 -14 -24 -15 -24
-11 -2 3 12 1 22 -4 22 -8 0 -13 -14 -11 -31 1 -4 -8 -5 -18 -2 -26 7 -57 -17
-38 -28 8 -6 9 -9 2 -9 -18 0 -37 28 -28 41 5 8 3 9 -5 5 -7 -5 -10 -14 -7
-22 3 -8 0 -14 -7 -14 -8 0 -7 -4 3 -10 12 -8 13 -11 2 -22 -8 -7 -12 -8 -11
-3 2 6 -3 21 -10 34 -8 14 -9 21 -2 17 6 -4 11 -2 11 3 0 6 -3 11 -7 11 -21
-1 -30 -18 -28 -49 4 -51 -9 -78 -37 -76 -13 2 -22 8 -20 16 1 8 -4 6 -12 -5
-10 -12 -21 -16 -32 -12 -11 4 -24 -1 -37 -14 -10 -12 -25 -19 -32 -16 -8 3
-16 0 -19 -7 -3 -9 -8 -8 -15 3 -6 8 -11 10 -11 4 0 -6 -7 -11 -15 -11 -8 0
-15 7 -15 14 0 11 -3 11 -16 -2 -16 -15 -19 -15 -41 9 -13 14 -28 26 -33 26
-5 0 -12 9 -15 20 -3 11 -13 20 -20 20 -8 0 -17 5 -21 12 -5 7 -2 9 8 6 8 -4
15 -1 15 7 0 7 -6 11 -14 8 -9 -4 -11 0 -6 13 5 13 3 16 -10 11 -12 -4 -15 -1
-12 15 5 25 13 34 22 24 4 -4 2 -11 -6 -15 -9 -6 -7 -10 8 -14 12 -3 24 0 28
5 3 7 1 8 -5 4 -7 -4 -12 -1 -12 8 0 9 4 16 10 16 5 0 7 7 4 15 -4 9 -11 15
-18 14 -25 -3 -36 2 -36 17 0 8 -4 13 -9 9 -5 -3 -12 -1 -16 5 -4 6 -11 8 -16
5 -14 -9 -11 7 5 24 13 15 11 16 -16 18 -31 1 -62 28 -53 44 3 4 1 10 -5 14
-15 9 -12 28 3 19 6 -4 2 4 -11 18 -17 19 -20 27 -10 31 10 4 10 7 1 14 -7 5
-11 19 -8 31 2 14 0 20 -7 16 -7 -5 -9 4 -6 25 2 17 2 31 -1 31 -13 0 11 339
30 415 5 22 16 69 24 105 18 80 63 232 81 276 7 17 27 43 44 57 16 14 30 31
30 37 0 6 5 8 10 5 6 -3 10 -1 10 6 0 7 3 10 6 6 4 -3 13 1 21 9 14 13 18 13
39 -1 13 -8 24 -11 24 -5z m870 -450 c0 -11 -4 -20 -9 -20 -5 0 -7 9 -4 20 3
11 7 20 9 20 2 0 4 -9 4 -20z m-1270 -394 c0 -11 -19 -15 -25 -6 -3 5 1 10 9
10 9 0 16 -2 16 -4z m43 -30 c19 -15 23 -61 5 -72 -7 -5 -8 -3 -3 6 6 9 4 11
-5 5 -10 -6 -10 -10 2 -19 13 -10 13 -13 2 -24 -12 -10 -14 -10 -15 5 0 12 -4
8 -11 -10 -7 -21 -6 -32 4 -45 12 -15 11 -16 -4 -4 -15 12 -22 11 -48 -8 -22
-16 -28 -17 -24 -6 3 9 13 16 21 16 8 0 11 5 8 10 -4 6 -16 8 -27 4 -17 -5
-20 -3 -15 10 9 22 -2 47 -17 39 -7 -4 -7 -1 1 9 7 8 10 18 6 21 -3 4 -1 7 5
7 6 0 9 7 5 16 -4 10 1 17 16 21 11 3 21 9 21 12 0 4 7 8 15 8 8 0 12 -4 9 -9
-3 -4 -1 -8 5 -8 6 0 8 -6 5 -14 -7 -17 9 -28 30 -20 14 5 13 10 -5 35 -22 31
-16 37 14 15z m-147 -8 c4 -7 4 -10 -1 -6 -4 4 -14 0 -22 -10 -10 -13 -13 -14
-11 -2 3 12 16 29 25 30 1 0 5 -6 9 -12z m4 -92 c0 -3 -4 -8 -10 -11 -5 -3
-10 -1 -10 4 0 6 5 11 10 11 6 0 10 -2 10 -4z m3 -46 c-3 -11 -10 -23 -16 -27
-5 -3 -8 -2 -5 3 3 5 8 17 11 27 9 24 16 22 10 -3z m167 -4 c0 -10 -30 0 -34
11 -4 11 -1 11 14 3 11 -6 20 -12 20 -14z m-40 -36 c0 -5 -5 -10 -11 -10 -5 0
-7 5 -4 10 3 6 8 10 11 10 2 0 4 -4 4 -10z m-45 -10 c-3 -5 -16 -15 -28 -21
-19 -9 -19 -8 3 10 28 23 34 26 25 11z m1014 -43 c0 -9 -2 -8 -6 1 -2 6 -10 9
-15 6 -7 -4 -8 -2 -4 5 9 13 26 5 25 -12z m-1145 5 c3 -5 -1 -9 -9 -9 -8 0
-12 4 -9 9 3 4 7 8 9 8 2 0 6 -4 9 -8z m-524 -357 c11 -13 10 -14 -4 -9 -9 3
-16 10 -16 15 0 13 6 11 20 -6z m55 -35 c3 -5 2 -10 -4 -10 -5 0 -13 5 -16 10
-3 6 -2 10 4 10 5 0 13 -4 16 -10z m-251 -35 c-4 -8 -11 -15 -16 -15 -6 0 -5
6 2 15 7 8 14 15 16 15 2 0 1 -7 -2 -15z m802 -30 c-12 -19 -24 -25 -49 -24
-21 1 -25 3 -12 6 11 3 31 16 44 29 30 30 40 23 17 -11z m1019 15 c3 -6 -1 -7
-9 -4 -18 7 -21 14 -7 14 6 0 13 -4 16 -10z m-955 -20 c0 -5 -5 -10 -11 -10
-5 0 -7 5 -4 10 3 6 8 10 11 10 2 0 4 -4 4 -10z m-606 -36 c7 -19 2 -18 -19 6
-16 17 -16 20 -3 15 9 -4 19 -13 22 -21z m578 12 c5 3 2 -8 -6 -25 -11 -20
-24 -31 -39 -31 -18 0 -19 -2 -7 -10 13 -9 12 -12 -5 -25 -10 -8 -30 -13 -45
-11 -14 2 -31 -1 -37 -7 -9 -6 -13 -6 -13 2 0 10 13 15 32 12 13 -1 3 50 -12
59 -8 5 -12 10 -7 11 14 3 22 5 44 13 28 9 73 -12 52 -25 -11 -7 -10 -9 4 -9
14 0 17 5 12 20 -3 11 -3 25 1 32 6 9 9 9 12 0 2 -7 8 -9 14 -6z m93 -26 c-3
-5 -11 -10 -16 -10 -6 0 -7 5 -4 10 3 6 11 10 16 10 6 0 7 -4 4 -10z m435 -10
c0 -5 -7 -10 -15 -10 -8 0 -15 5 -15 10 0 6 7 10 15 10 8 0 15 -4 15 -10z
m449 -9 c-26 -21 -35 -20 -26 4 4 8 16 15 28 15 21 0 21 0 -2 -19z m-1575 -2
c-4 -6 15 -32 44 -59 28 -26 48 -50 46 -53 -3 -3 -26 17 -52 44 -25 27 -53 49
-62 49 -12 1 -11 4 4 15 24 18 30 19 20 4z m1606 -59 c0 -5 -4 -10 -10 -10 -5
0 -10 5 -10 10 0 6 5 10 10 10 6 0 10 -4 10 -10z m-790 -10 c0 -5 -2 -10 -4
-10 -3 0 -8 5 -11 10 -3 6 -1 10 4 10 6 0 11 -4 11 -10z m458 -4 c-7 -8 -15
-12 -17 -11 -5 6 10 25 20 25 5 0 4 -6 -3 -14z m-1110 -16 c-14 -22 -24 -19
-15 5 4 8 11 15 17 15 6 0 6 -7 -2 -20z m122 16 c0 -2 -8 -10 -17 -17 -16 -13
-17 -12 -4 4 13 16 21 21 21 13z m514 -46 c2 -24 -3 -34 -18 -40 -17 -7 -17
-9 -4 -9 9 -1 20 4 23 9 3 6 15 10 26 10 15 0 18 5 15 25 -3 14 -1 23 5 20 12
-8 12 -55 -1 -55 -5 0 -10 -4 -10 -9 0 -5 10 -7 23 -4 20 5 19 2 -9 -25 -18
-17 -44 -34 -59 -38 -14 -3 -24 -12 -22 -18 3 -7 -4 -13 -15 -13 -11 -1 -26
-10 -33 -19 -8 -11 -19 -15 -30 -11 -15 6 -15 10 -4 24 11 13 11 17 1 20 -13
5 -7 23 9 23 6 0 7 -4 4 -10 -3 -5 1 -10 11 -10 13 0 14 3 4 15 -7 8 -21 15
-31 15 -25 0 -24 4 6 36 13 14 24 29 23 33 -2 18 4 22 17 11 8 -7 15 -8 15 -3
0 14 41 65 47 59 3 -2 6 -19 7 -36z m580 34 c9 -3 14 -10 11 -15 -7 -10 -35 0
-35 12 0 11 3 11 24 3z m-39 -24 c-7 -21 10 -60 31 -73 8 -4 14 -12 14 -16 0
-11 -101 -5 -109 6 -3 5 -29 9 -58 8 -61 -1 -93 16 -73 40 8 10 9 15 1 15 -6
0 -11 5 -11 11 0 6 24 -3 54 -20 57 -33 92 -40 83 -17 -7 17 30 29 37 12 2 -6
5 1 5 15 1 27 8 39 23 39 5 0 7 -9 3 -20z m25 -14 c0 -3 -4 -8 -10 -11 -5 -3
-10 -1 -10 4 0 6 5 11 10 11 6 0 10 -2 10 -4z m-1236 -31 c9 -14 12 -25 7 -25
-5 0 -16 11 -25 25 -9 14 -12 25 -7 25 5 0 16 -11 25 -25z m90 10 c-4 -8 -11
-15 -16 -15 -6 0 -5 6 2 15 7 8 14 15 16 15 2 0 1 -7 -2 -15z m901 -3 c-3 -3
-11 0 -18 7 -9 10 -8 11 6 5 10 -3 15 -9 12 -12z m-546 -19 c-23 -30 -51 -53
-63 -52 -6 0 -6 3 2 6 6 2 10 9 6 14 -3 5 1 9 8 9 7 0 19 9 26 20 7 11 17 20
23 20 8 0 7 -6 -2 -17z m-939 -12 c0 -5 -7 -11 -15 -15 -15 -5 -20 5 -8 17 9
10 23 9 23 -2z m1850 -21 c0 -5 -8 -10 -17 -10 -15 0 -16 2 -3 10 19 12 20 12
20 0z m-1800 -56 c0 -2 -7 -4 -15 -4 -8 0 -15 4 -15 10 0 5 7 7 15 4 8 -4 15
-8 15 -10z m-40 -29 c0 -2 -9 -9 -20 -15 -16 -9 -18 -8 -14 5 5 13 34 22 34
10z m1160 -75 c0 -5 -2 -10 -4 -10 -3 0 -8 5 -11 10 -3 6 -1 10 4 10 6 0 11
-4 11 -10z m100 -50 c0 -5 -7 -7 -15 -4 -8 4 -15 8 -15 10 0 2 7 4 15 4 8 0
15 -4 15 -10z m50 -31 c0 -14 -16 -11 -29 5 -10 12 -8 13 8 9 12 -3 21 -9 21
-14z m-1025 1 c-3 -5 -11 -10 -16 -10 -6 0 -7 5 -4 10 3 6 11 10 16 10 6 0 7
-4 4 -10z"/>
<path d="M1426 2102 c-3 -5 1 -9 9 -9 8 0 12 4 9 9 -3 4 -7 8 -9 8 -2 0 -6 -4
-9 -8z"/>
<path d="M1263 1727 c-35 -16 -61 -96 -44 -139 6 -12 10 -17 10 -10 1 7 4 11
9 9 4 -3 8 6 8 20 3 49 53 60 144 34 25 -7 47 -17 50 -22 3 -4 12 -4 19 1 12
7 12 13 -3 35 -16 24 -43 40 -85 49 -9 2 -26 7 -38 11 -12 4 -25 6 -29 5 -4
-1 -10 3 -13 8 -4 6 -14 6 -28 -1z"/>
<path d="M1712 1654 c-8 -6 -17 -20 -18 -30 -3 -18 2 -19 69 -14 84 7 188 -9
212 -33 9 -9 28 -17 42 -17 l25 0 -19 32 c-11 18 -34 43 -53 55 -35 24 -55 30
-45 13 3 -5 2 -10 -4 -10 -5 0 -11 6 -14 13 -3 9 -7 9 -20 -2 -10 -7 -17 -10
-17 -5 0 13 -140 11 -158 -2z"/>
<path d="M1267 1582 c-34 -37 -7 -73 42 -57 11 3 22 1 26 -5 8 -12 46 -3 57
13 11 18 -11 47 -37 47 -14 0 -25 6 -25 13 0 8 -4 7 -11 -3 -8 -11 -12 -12
-16 -2 -7 17 -17 15 -36 -6z"/>
<path d="M1745 1552 c-6 -4 -16 -14 -23 -23 -10 -14 -9 -17 8 -22 11 -3 18 -1
14 4 -3 5 1 9 9 9 8 0 17 -9 20 -19 2 -10 14 -24 26 -30 18 -10 25 -8 46 15
l25 27 31 -22 c30 -22 32 -22 48 -6 9 10 10 15 3 11 -7 -4 -18 -3 -25 2 -17
14 -138 54 -145 48 -3 -3 -10 -2 -16 4 -7 5 -16 6 -21 2z"/>
<path d="M1446 1534 c-4 -11 -1 -14 11 -12 9 2 18 9 21 16 6 18 -25 15 -32 -4z"/>
<path d="M1419 1252 c-14 -3 -15 -8 -5 -33 10 -27 8 -33 -9 -46 -15 -12 -16
-14 -3 -10 12 4 15 2 11 -9 -3 -9 2 -14 16 -15 12 -1 26 -3 31 -4 6 -1 15 -3
21 -4 5 0 8 -5 5 -9 -2 -4 -1 -14 4 -22 7 -11 11 -11 24 3 9 8 12 17 8 19 -14
6 -51 77 -42 83 4 3 10 0 12 -7 3 -8 6 -9 11 -1 3 5 -5 15 -19 22 -15 6 -23 7
-19 1 3 -5 4 -10 1 -10 -3 0 -11 10 -18 23 -7 13 -20 21 -29 19z"/>
<path d="M1535 1220 c-4 -6 -3 -9 2 -8 4 1 18 -2 31 -6 28 -9 43 1 22 14 -20
13 -47 12 -55 0z"/>
<path d="M1545 1176 c-18 -13 -18 -14 4 -21 18 -6 21 -9 10 -16 -11 -7 -11 -9
2 -9 9 0 24 9 34 20 17 19 17 20 -1 26 -11 4 -22 8 -25 10 -3 2 -14 -3 -24
-10z"/>
<path d="M2085 1109 c-4 -6 -5 -12 -2 -15 2 -3 7 2 10 11 7 17 1 20 -8 4z"/>
<path d="M1315 1060 c-10 -16 19 -39 57 -47 15 -3 26 -9 23 -13 -2 -3 2 -7 10
-7 8 0 15 4 15 8 0 7 20 6 70 -5 14 -3 49 -7 79 -10 30 -3 57 -9 60 -13 3 -5
13 -8 21 -7 8 0 30 2 49 2 37 2 35 14 -4 19 -13 2 -42 10 -65 18 -22 8 -40 12
-40 9 0 -3 -7 2 -16 10 -13 14 -49 22 -77 17 -4 -1 -23 5 -42 13 -23 10 -35
11 -35 4 0 -7 -5 -6 -15 2 -10 8 -15 9 -15 2 0 -13 -52 -11 -61 2 -4 4 -10 2
-14 -4z"/>
<path d="M1992 957 c-17 -18 -19 -24 -8 -24 8 0 13 4 11 8 -6 9 20 31 27 23 3
-3 9 -1 13 5 12 21 -22 11 -43 -12z"/>
<path d="M1393 906 c0 -8 5 -14 11 -13 9 2 11 -3 15 -34 0 -6 8 -8 17 -5 10 4
13 2 8 -6 -5 -7 0 -9 14 -6 12 4 25 2 28 -3 3 -5 11 -6 17 -2 7 4 17 8 22 9 6
0 16 2 22 2 8 1 5 11 -8 26 -13 15 -27 22 -37 19 -8 -4 -13 -2 -9 3 3 5 -6 9
-21 8 -15 0 -29 -8 -34 -20 -6 -16 -7 -15 -5 6 1 19 -3 26 -19 28 -13 2 -21
-3 -21 -12z"/>
<path d="M1915 910 c4 -6 11 -8 16 -5 14 9 11 15 -7 15 -8 0 -12 -5 -9 -10z"/>
<path d="M1969 913 c0 -5 -2 -16 -4 -26 -2 -11 -1 -16 3 -13 8 8 14 46 7 46
-3 0 -5 -3 -6 -7z"/>
<path d="M1905 890 c-2 -3 7 -7 21 -8 13 -1 24 2 24 7 0 10 -39 11 -45 1z"/>
<path d="M1573 865 c0 -8 4 -12 9 -9 4 3 8 9 8 15 0 5 -4 9 -8 9 -5 0 -9 -7
-9 -15z"/>
<path d="M1699 808 c-6 -21 -5 -38 2 -38 5 0 9 9 9 20 0 16 -7 28 -11 18z"/>
<path d="M950 454 c0 -8 5 -12 10 -9 6 3 10 10 10 16 0 5 -4 9 -10 9 -5 0 -10
-7 -10 -16z"/>
<path d="M1210 320 c0 -5 4 -10 9 -10 6 0 13 5 16 10 3 6 -1 10 -9 10 -9 0
-16 -4 -16 -10z"/>
<path d="M1215 270 c-3 -5 -1 -10 4 -10 6 0 11 5 11 10 0 6 -2 10 -4 10 -3 0
-8 -4 -11 -10z"/>
<path d="M1605 300 c3 -5 10 -10 16 -10 5 0 9 5 9 10 0 6 -7 10 -16 10 -8 0
-12 -4 -9 -10z"/>
<path d="M2 2049 c1 -46 4 -57 14 -48 8 7 14 7 19 -1 8 -14 61 -6 57 9 -3 15
15 14 21 -1 2 -7 -3 -18 -11 -24 -13 -9 -13 -12 2 -17 9 -4 16 -2 16 4 0 6 15
7 38 4 27 -5 33 -4 22 4 -14 10 -7 16 14 12 5 -1 4 5 -3 13 -7 9 -18 13 -25 9
-6 -3 -2 3 8 15 22 25 28 28 20 8 -7 -17 12 -31 21 -16 4 6 2 17 -4 24 -6 7
-8 16 -4 20 4 4 -6 2 -22 -4 -25 -9 -31 -8 -42 6 -7 10 -13 14 -13 8 0 -5 -11
-14 -25 -20 -13 -7 -24 -9 -23 -5 1 3 -2 14 -7 24 -5 12 -13 16 -29 11 -18 -6
-19 -5 -8 8 10 13 9 16 -12 16 -23 0 -24 -3 -24 -59z m138 -7 c0 -4 -10 -9
-22 -9 -18 -2 -20 0 -8 7 18 12 30 13 30 2z"/>
<path d="M85 2089 c-9 -14 0 -22 18 -17 13 2 13 5 2 15 -10 9 -16 9 -20 2z"/>
<path d="M250 2008 c0 -6 -3 -9 -6 -5 -8 8 -44 -25 -38 -35 3 -5 10 -6 15 -3
5 4 9 -1 9 -10 0 -10 -5 -13 -12 -9 -7 4 -4 -2 6 -14 14 -16 29 -22 52 -20 18
1 30 6 28 10 -3 4 3 8 14 8 10 0 27 9 37 20 10 11 13 20 7 20 -7 0 -12 -5 -12
-11 0 -5 -4 -7 -10 -4 -5 3 -10 1 -10 -4 0 -6 -9 -11 -19 -11 -11 0 -21 -6
-24 -12 -4 -10 -7 -10 -18 0 -11 10 -10 12 3 12 8 0 20 6 26 13 8 10 6 13 -11
13 -12 0 -26 -5 -30 -10 -5 -7 -6 -3 -3 7 3 10 6 25 6 33 0 9 5 12 10 9 6 -4
8 -10 5 -15 -8 -12 10 -21 29 -14 19 7 22 28 4 22 -7 -3 -19 1 -26 9 -17 16
-32 17 -32 1z"/>
<path d="M661 1874 c-4 -39 80 -113 93 -81 2 7 5 5 5 -5 1 -25 -20 -33 -35
-13 -11 15 -13 13 -11 -22 1 -29 5 -39 18 -40 12 -1 16 3 12 13 -3 8 -1 14 5
14 11 0 11 -18 -1 -38 -5 -7 -14 -9 -20 -5 -7 4 -6 0 2 -10 14 -18 57 -24 46
-7 -10 16 21 12 35 -5 11 -14 7 -19 -12 -16 -4 0 -5 -5 -2 -12 2 -7 13 -13 23
-14 14 -1 17 5 15 24 -3 26 0 25 32 -18 24 -32 31 -34 51 -14 19 19 35 3 25
-24 -5 -14 -3 -14 11 -3 16 13 13 42 -4 42 -16 0 -10 32 9 46 16 13 16 13 0
14 -10 0 -18 -5 -18 -12 0 -9 -3 -9 -12 0 -14 14 -42 16 -33 2 3 -5 -1 -10 -9
-10 -10 0 -13 6 -10 15 4 10 0 15 -12 16 -13 0 -11 4 9 11 29 10 34 22 15 34
-6 4 -8 3 -5 -3 4 -7 -2 -10 -16 -9 -18 1 -22 6 -19 23 2 13 12 23 21 23 14 0
14 -2 1 -10 -13 -8 -12 -10 3 -10 9 0 17 6 18 13 0 6 5 1 10 -12 5 -13 12 -21
15 -18 3 3 0 15 -6 27 -6 12 -14 19 -17 16 -4 -3 -12 -1 -19 5 -8 7 -14 7 -19
-1 -10 -16 -28 -12 -21 6 5 14 4 15 -8 5 -11 -9 -18 -6 -36 16 -16 21 -23 24
-30 13 -5 -9 -1 -20 13 -32 l22 -19 -26 15 c-14 9 -29 13 -32 9 -4 -3 -7 -1
-7 5 0 6 5 14 10 17 6 4 8 11 4 16 -3 6 -15 4 -30 -6 -22 -14 -24 -14 -24 0 0
9 -4 14 -9 10 -5 -3 -12 3 -14 12 -3 10 -5 13 -6 7z m139 -100 c0 -8 -19 -13
-24 -6 -3 5 1 9 9 9 8 0 15 -2 15 -3z m95 -114 c-3 -5 -1 -10 4 -10 6 0 11 5
11 10 0 6 4 10 8 10 5 0 9 -7 9 -15 0 -8 -8 -15 -18 -15 -20 0 -32 14 -22 24
10 9 15 7 8 -4z"/>
<path d="M622 1853 c-13 -3 -26 -11 -29 -19 -3 -8 -9 -11 -14 -8 -5 3 -9 0 -9
-5 0 -16 11 -14 32 6 10 9 18 11 18 5 0 -6 -4 -14 -10 -17 -6 -4 -5 -11 3 -19
6 -8 16 -12 20 -9 5 3 4 10 -1 15 -7 7 -6 18 5 34 8 13 14 23 12 23 -2 -1 -14
-4 -27 -6z"/>
<path d="M530 1839 c0 -5 5 -7 10 -4 6 3 10 8 10 11 0 2 -4 4 -10 4 -5 0 -10
-5 -10 -11z"/>
<path d="M644 1828 c-4 -6 0 -16 9 -22 8 -7 17 -21 19 -31 3 -21 16 -35 32
-35 5 0 1 9 -9 20 -14 15 -15 20 -4 20 9 0 5 8 -10 19 -13 10 -21 23 -17 30 4
6 3 11 -3 11 -5 0 -13 -5 -17 -12z"/>
<path d="M520 1799 c0 -5 5 -7 10 -4 6 3 10 8 10 11 0 2 -4 4 -10 4 -5 0 -10
-5 -10 -11z"/>
<path d="M551 1794 c0 -11 3 -14 6 -6 3 7 2 16 -1 19 -3 4 -6 -2 -5 -13z"/>
<path d="M580 1796 c0 -2 8 -10 18 -17 15 -13 16 -12 3 4 -13 16 -21 21 -21
13z"/>
<path d="M2795 1658 c-4 -24 -2 -54 4 -68 8 -21 10 -13 10 43 1 76 -5 87 -14
25z"/>
<path d="M58 1683 c-10 -2 -18 -9 -18 -14 0 -14 16 -11 30 6 7 8 11 14 9 14
-2 -1 -12 -3 -21 -6z"/>
<path d="M976 1623 c6 -30 24 -57 20 -30 -1 9 -5 19 -8 23 -4 3 -4 12 -1 20 3
8 0 14 -5 14 -6 0 -9 -12 -6 -27z"/>
<path d="M41 1611 c-14 -9 -7 -31 10 -31 6 0 7 5 3 11 -3 6 0 15 7 20 8 5 10
9 4 9 -5 0 -16 -4 -24 -9z"/>
<path d="M90 1589 c0 -4 6 -12 14 -18 11 -9 15 -7 19 8 3 15 0 19 -14 18 -11
-1 -19 -4 -19 -8z"/>
<path d="M6 1574 c-3 -8 -6 -189 -6 -400 l0 -385 45 48 c25 26 45 54 45 60 0
7 9 13 20 13 13 0 28 13 41 35 15 25 28 35 45 35 14 0 27 7 30 15 4 8 14 15
23 15 9 0 22 5 29 12 7 7 12 9 12 5 0 -3 18 0 40 8 22 8 40 12 40 9 0 -2 10 2
23 10 25 16 121 36 176 36 24 0 31 3 22 9 -9 6 -10 11 -2 15 17 11 14 39 -4
33 -8 -4 -17 -2 -21 4 -4 6 -13 4 -25 -7 -16 -14 -22 -15 -32 -4 -10 10 -9 12
5 7 9 -3 23 2 34 14 9 10 23 19 31 19 8 0 11 4 8 10 -4 6 -15 4 -28 -5 -21
-13 -23 -13 -23 5 0 10 4 16 8 14 4 -3 8 0 8 5 0 11 -15 15 -34 12 -10 -2 -26
19 -26 34 0 6 4 4 9 -4 6 -9 11 -10 15 -2 6 10 -5 15 -26 12 -4 0 -16 11 -26
24 -23 29 -32 31 -32 9 0 -8 5 -12 10 -9 6 3 10 2 10 -3 0 -5 -14 -9 -31 -9
-25 0 -30 4 -25 20 4 15 0 18 -14 14 -11 -3 -18 0 -17 7 2 14 -52 9 -71 -6
-10 -8 -11 -7 -5 8 6 17 5 17 -10 5 -10 -8 -21 -11 -25 -7 -7 8 36 46 53 46 6
0 4 -4 -3 -9 -9 -5 3 -8 32 -8 26 0 43 4 40 9 -4 5 -15 7 -27 4 -15 -4 -17 -2
-8 7 6 6 11 15 11 21 0 6 -5 5 -12 -2 -14 -14 -32 -16 -24 -3 6 10 -17 33 -30
30 -18 -3 -34 1 -33 9 4 22 -3 31 -18 25 -12 -5 -14 -3 -8 7 6 10 3 12 -13 8
-26 -7 -29 7 -6 20 11 6 13 12 6 16 -6 4 -8 14 -5 24 5 14 3 14 -17 -3 l-23
-20 7 23 c8 25 1 28 -19 8 -8 -8 -10 -17 -5 -22 19 -19 -26 -10 -45 9 -13 12
-15 16 -4 12 9 -3 24 5 38 21 26 30 23 44 -4 14 -22 -24 -35 -26 -35 -5 0 8
-4 15 -10 15 -10 0 -14 -15 -11 -34 1 -5 -5 -4 -13 3 -8 7 -20 10 -25 6 -7 -4
-8 1 -4 11 4 12 3 15 -5 10 -8 -5 -10 -2 -6 8 3 9 2 16 -4 16 -5 0 -13 -7 -16
-16z m89 -74 c3 -6 -1 -7 -9 -4 -18 7 -21 14 -7 14 6 0 13 -4 16 -10z m129
-96 c3 -8 2 -12 -4 -9 -6 3 -10 10 -10 16 0 14 7 11 14 -7z m-28 -94 c8 0 14
5 14 10 0 6 6 10 13 10 6 -1 1 -10 -12 -21 -19 -15 -26 -17 -32 -7 -5 7 -8 18
-8 23 0 6 3 4 6 -2 2 -7 11 -13 19 -13z m175 -30 c11 0 12 -27 2 -33 -5 -3
-17 7 -27 21 -18 23 -18 25 -2 19 10 -4 22 -7 27 -7z m182 -165 c-3 -9 -8 -14
-10 -11 -3 3 -2 9 2 15 9 16 15 13 8 -4z"/>
<path d="M210 1575 c-8 -9 -8 -15 -2 -15 12 0 26 19 19 26 -2 2 -10 -2 -17
-11z"/>
<path d="M915 1580 c-3 -5 1 -10 10 -10 9 0 13 5 10 10 -3 6 -8 10 -10 10 -2
0 -7 -4 -10 -10z"/>
<path d="M880 1572 c0 -10 22 -32 32 -32 15 0 8 15 -12 28 -11 7 -20 9 -20 4z"/>
<path d="M956 1546 c3 -8 12 -12 21 -9 12 5 12 7 1 14 -20 13 -28 11 -22 -5z"/>
<path d="M215 1510 c-3 -5 1 -10 10 -10 9 0 13 -4 10 -10 -3 -5 -1 -10 4 -10
15 0 14 15 -3 29 -10 8 -16 9 -21 1z"/>
<path d="M667 1509 c13 -13 1 -31 -27 -42 -13 -5 -13 -6 1 -6 8 -1 21 5 27 11
8 8 15 9 20 3 10 -14 42 -38 42 -32 0 3 -7 13 -16 21 -8 9 -11 16 -5 16 6 0
11 4 11 10 0 5 -7 7 -15 4 -9 -4 -15 0 -15 10 0 9 -8 16 -17 16 -13 0 -14 -3
-6 -11z"/>
<path d="M290 1470 c0 -6 7 -10 15 -10 8 0 15 2 15 4 0 2 -7 6 -15 10 -8 3
-15 1 -15 -4z"/>
<path d="M333 1453 c-10 -3 -10 -8 1 -19 19 -18 22 -18 22 6 0 21 -2 22 -23
13z"/>
<path d="M275 1429 c-11 -16 -1 -19 13 -3 7 8 8 14 3 14 -5 0 -13 -5 -16 -11z"/>
<path d="M725 1420 c-3 -5 3 -10 15 -10 12 0 18 5 15 10 -3 6 -10 10 -15 10
-5 0 -12 -4 -15 -10z"/>
<path d="M405 1400 c3 -5 8 -10 11 -10 2 0 4 5 4 10 0 6 -5 10 -11 10 -5 0 -7
-4 -4 -10z"/>
<path d="M816 1397 c3 -10 9 -15 12 -12 3 3 0 11 -7 18 -10 9 -11 8 -5 -6z"/>
<path d="M1040 1390 c0 -5 5 -10 11 -10 5 0 7 5 4 10 -3 6 -8 10 -11 10 -2 0
-4 -4 -4 -10z"/>
<path d="M790 1370 c0 -5 5 -10 11 -10 5 0 7 5 4 10 -3 6 -8 10 -11 10 -2 0
-4 -4 -4 -10z"/>
<path d="M860 1340 c-9 -6 -10 -10 -3 -10 6 0 15 5 18 10 8 12 4 12 -15 0z"/>
<path d="M885 1320 c-3 -5 -1 -10 4 -10 6 0 11 5 11 10 0 6 -2 10 -4 10 -3 0
-8 -4 -11 -10z"/>
<path d="M906 1289 c-19 -27 -19 -26 22 -32 19 -3 30 -1 26 4 -3 6 0 16 6 24
8 9 8 15 2 15 -6 0 -17 3 -25 6 -9 3 -21 -4 -31 -17z m31 -11 c0 -13 -1 -17
-4 -10 -3 6 -9 10 -14 6 -10 -6 -12 9 -2 19 12 13 19 7 20 -15z"/>
<path d="M861 1275 c0 -5 6 -19 14 -29 8 -11 15 -15 15 -10 0 6 -7 19 -15 30
-8 10 -14 15 -14 9z"/>
<path d="M663 1245 c0 -8 4 -12 9 -9 4 3 8 9 8 15 0 5 -4 9 -8 9 -5 0 -9 -7
-9 -15z"/>
<path d="M620 1191 c0 -10 19 -25 25 -20 1 2 -3 10 -11 17 -8 7 -14 8 -14 3z"/>
<path d="M791 1163 c-7 -14 -7 -23 -1 -23 6 0 10 5 10 11 0 7 7 17 16 24 15
10 15 12 1 12 -8 0 -20 -11 -26 -24z"/>
<path d="M601 1175 c0 -5 6 -19 14 -29 8 -11 15 -15 15 -10 0 6 -7 19 -15 30
-8 10 -14 15 -14 9z"/>
<path d="M890 1145 c14 -17 30 -20 30 -4 0 5 -4 7 -10 4 -5 -3 -10 -1 -10 4 0
6 -5 11 -11 11 -8 0 -8 -5 1 -15z"/>
<path d="M2653 749 c-18 -5 -33 -14 -33 -20 0 -6 8 -5 23 2 l22 11 -22 -21
c-12 -11 -27 -21 -32 -21 -13 0 2 -51 35 -117 19 -40 31 -53 47 -53 12 0 17
-4 12 -8 -15 -10 -13 -31 4 -41 9 -6 10 -11 3 -15 -13 -8 -4 -36 11 -36 6 0 8
3 4 6 -3 4 0 19 8 34 14 26 13 28 -5 23 -12 -3 -20 0 -20 7 0 9 11 11 35 7 25
-4 35 -2 35 8 0 7 7 15 15 19 11 4 15 22 15 74 0 76 -9 92 -54 92 -16 0 -27 3
-24 6 5 4 -39 56 -45 53 -1 0 -17 -5 -34 -10z m77 -120 l22 -30 27 23 26 23
-24 -27 c-14 -16 -20 -28 -15 -28 5 0 3 -4 -5 -9 -18 -11 -71 35 -71 61 0 27
16 22 40 -13z m-55 -29 c4 -6 10 -8 15 -5 4 3 6 -4 3 -16 -5 -19 -3 -20 18
-14 19 6 21 5 13 -5 -17 -17 -49 -4 -62 25 -11 24 0 36 13 15z"/>
<path d="M25 720 c-4 -11 -11 -18 -16 -15 -5 4 -9 -8 -9 -25 0 -29 1 -30 23
-18 20 11 20 13 4 16 -18 4 -17 5 3 27 13 13 17 25 11 29 -5 4 -12 -3 -16 -14z"/>
<path d="M2790 722 c6 -13 14 -21 18 -18 3 4 -2 14 -12 24 -18 16 -18 16 -6
-6z"/>
<path d="M50 650 c0 -5 7 -7 15 -4 8 4 15 8 15 10 0 2 -7 4 -15 4 -8 0 -15 -4
-15 -10z"/>
<path d="M90 509 c0 -5 5 -7 10 -4 6 3 10 8 10 11 0 2 -4 4 -10 4 -5 0 -10 -5
-10 -11z"/>
<path d="M253 488 c-1 -12 5 -18 19 -18 12 0 18 3 15 7 -4 3 -2 12 4 20 9 10
6 13 -13 11 -15 -1 -25 -9 -25 -20z"/>
<path d="M2248 503 c-10 -2 -18 -8 -18 -13 0 -16 50 -63 58 -55 4 4 1 10 -5
12 -7 3 -13 11 -13 19 0 8 -6 14 -12 14 -8 0 -5 7 6 15 20 15 16 17 -16 8z"/>
<path d="M2650 470 c-8 -5 -12 -12 -9 -15 4 -3 12 1 19 10 14 17 11 19 -10 5z"/>
<path d="M2760 470 c-13 -8 -12 -10 3 -10 9 0 17 5 17 10 0 12 -1 12 -20 0z"/>
<path d="M72 443 c-6 -2 -10 -9 -6 -14 8 -14 21 -11 28 6 6 15 1 17 -22 8z"/>
<path d="M2761 442 c-19 -3 -21 -6 -10 -13 11 -7 11 -9 -3 -9 -28 0 -30 -17
-6 -41 13 -12 18 -19 11 -15 -6 3 -15 1 -18 -5 -4 -5 -13 -8 -21 -5 -26 10
-44 -4 -38 -30 5 -18 2 -24 -11 -24 -10 0 -13 4 -9 13 5 8 2 8 -9 -2 -9 -7
-17 -9 -17 -3 0 5 -6 12 -14 15 -9 4 -16 -3 -19 -19 -3 -16 0 -24 7 -21 6 2
20 1 31 -4 18 -7 18 -8 2 -8 -10 -1 -15 -5 -12 -11 3 -5 -1 -10 -10 -10 -11 0
-15 -5 -12 -14 10 -26 -36 -47 -53 -24 -6 7 -137 58 -151 58 -5 0 -9 -4 -9 -9
0 -5 7 -8 16 -7 9 0 18 -7 19 -16 2 -10 -1 -18 -6 -18 -6 0 -8 -4 -5 -9 4 -5
1 -11 -6 -13 -8 -3 -7 -12 3 -34 28 -54 44 -79 57 -87 17 -11 15 -34 -4 -41
-26 -10 -36 -7 -30 9 4 13 2 14 -14 5 -14 -7 -20 -7 -20 0 0 5 -4 10 -10 10
-22 0 -8 -17 31 -38 40 -22 146 -31 163 -15 10 11 36 12 36 2 0 -15 80 -10 96
6 20 20 40 20 24 0 -11 -13 -7 -15 29 -15 l41 0 0 120 c0 89 -3 120 -12 120
-10 0 -10 2 -1 8 11 7 11 29 -1 80 -3 12 -1 22 5 22 5 0 9 12 9 26 0 14 -4 23
-10 19 -5 -3 -10 -1 -10 4 0 6 4 11 9 11 6 0 9 8 8 18 -1 19 -5 20 -46 14z
m-51 -107 c0 -9 -6 -12 -16 -8 -13 5 -13 7 -2 14 17 11 18 11 18 -6z m40 -15
c0 -5 -7 -7 -15 -4 -8 4 -15 8 -15 10 0 2 7 4 15 4 8 0 15 -4 15 -10z m2 -55
c-2 -14 -6 -25 -8 -25 -2 0 -4 11 -4 25 0 14 4 25 9 25 4 0 6 -11 3 -25z m25
-42 c0 -10 -7 -25 -16 -33 -13 -13 -14 -13 -8 4 6 14 4 17 -10 12 -13 -4 -11
0 6 14 28 24 28 24 28 3z m-37 -45 c0 -7 -7 -22 -15 -32 -13 -17 -15 -17 -15
-4 0 9 5 20 10 23 6 4 8 11 5 16 -4 5 -1 9 4 9 6 0 11 -6 11 -12z m-200 -48
c0 -5 -4 -10 -10 -10 -5 0 -10 5 -10 10 0 6 5 10 10 10 6 0 10 -4 10 -10z
m217 -32 c-3 -8 -6 -5 -6 6 -1 11 2 17 5 13 3 -3 4 -12 1 -19z m-193 -14 c3
-8 2 -12 -4 -9 -6 3 -10 10 -10 16 0 14 7 11 14 -7z m161 -4 c3 -5 1 -10 -4
-10 -6 0 -11 5 -11 10 0 6 2 10 4 10 3 0 8 -4 11 -10z"/>
<path d="M2275 380 c-11 -17 6 -38 27 -32 17 4 20 2 15 -11 -4 -11 -1 -17 8
-17 19 0 19 5 -1 35 -17 26 -41 39 -49 25z"/>
<path d="M376 367 c3 -10 9 -15 12 -12 3 3 0 11 -7 18 -10 9 -11 8 -5 -6z"/>
<path d="M2510 366 c0 -2 9 -6 20 -9 11 -3 20 -1 20 4 0 5 -9 9 -20 9 -11 0
-20 -2 -20 -4z"/>
<path d="M2591 346 c2 -2 18 -6 34 -10 22 -5 26 -4 15 4 -14 9 -59 15 -49 6z"/>
<path d="M347 296 c-10 -8 -15 -16 -10 -18 4 -3 16 3 26 14 20 21 10 24 -16 4z"/>
<path d="M2057 301 c-16 -6 -16 -9 -5 -18 7 -6 21 -7 31 -4 16 6 16 9 5 18 -7
6 -21 7 -31 4z"/>
<path d="M291 258 c-1 -10 -9 -18 -18 -18 -13 0 -14 -3 -6 -11 6 -6 9 -19 5
-28 -5 -14 -4 -14 11 -2 9 7 17 19 17 26 0 17 29 13 40 -5 6 -10 10 -8 19 8
14 27 14 39 -1 24 -17 -17 -28 -15 -28 4 0 13 -3 14 -14 5 -11 -9 -15 -9 -19
1 -4 8 -6 7 -6 -4z"/>
<path d="M2095 260 c-3 -5 -2 -10 4 -10 5 0 13 5 16 10 3 6 2 10 -4 10 -5 0
-13 -4 -16 -10z"/>
<path d="M2365 240 c3 -5 11 -10 16 -10 6 0 7 5 4 10 -3 6 -11 10 -16 10 -6 0
-7 -4 -4 -10z"/>
<path d="M2044 171 c15 -28 30 -51 35 -51 11 0 -35 86 -50 96 -6 3 1 -17 15
-45z"/>
<path d="M259 173 c-16 -4 -39 -43 -39 -65 0 -6 8 -3 19 8 10 10 16 23 13 28
-3 5 3 6 14 2 10 -4 15 -4 11 0 -4 4 -2 13 4 21 12 13 8 14 -22 6z"/>
<path d="M2000 96 c0 -2 7 -9 15 -16 13 -11 14 -10 9 4 -5 14 -24 23 -24 12z"/>
<path d="M220 69 c0 -5 5 -7 10 -4 6 3 10 8 10 11 0 2 -4 4 -10 4 -5 0 -10 -5
-10 -11z"/>
<path d="M2347 33 c-18 -17 -5 -33 28 -33 19 0 35 5 35 11 0 7 -10 9 -24 5
-14 -3 -28 -1 -32 6 -4 7 -3 8 4 4 7 -4 12 -2 12 3 0 12 -13 14 -23 4z"/>
<path d="M2290 27 c0 -2 6 -10 14 -16 11 -9 16 -9 22 1 4 7 4 10 -1 6 -4 -4
-14 -3 -22 3 -7 6 -13 9 -13 6z"/>
</g>
</svg>
